<svg width="10" height="17" viewBox="0 0 10 17" fill="none" xmlns="http://www.w3.org/2000/svg">
<path d="M5.71429 6.34461H10L9.52381 8.15735H5.71429V16.3147H3.80952V8.15735H0V6.34461H3.80952V4.64788C3.80952 3.03182 3.98667 2.44539 4.3181 1.85444C4.64287 1.27056 5.14458 0.793085 5.75809 0.484003C6.37905 0.168585 6.99524 0 8.69333 0C9.19048 0 9.62667 0.0453187 10 0.135956V1.81275H8.69333C7.43238 1.81275 7.04857 1.88344 6.65619 2.08284C6.37454 2.22288 6.14484 2.44181 5.9981 2.71005C5.78857 3.08257 5.71429 3.44784 5.71429 4.64788V6.34461Z" fill="#121212"/>
</svg>
