<svg width="18" height="17" viewBox="0 0 18 17" fill="none" xmlns="http://www.w3.org/2000/svg">
<path d="M14.7427 16.312H2.39734C1.76152 16.312 1.15175 16.0716 0.702164 15.6437C0.252576 15.2159 0 14.6356 0 14.0305V2.28152C0 1.67643 0.252576 1.09611 0.702164 0.668243C1.15175 0.240374 1.76152 0 2.39734 0H14.7427C15.3785 0 15.9882 0.240374 16.4378 0.668243C16.8874 1.09611 17.14 1.67643 17.14 2.28152V14.0305C17.14 14.6356 16.8874 15.2159 16.4378 15.6437C15.9882 16.0716 15.3785 16.312 14.7427 16.312ZM2.39734 0.91261C2.01585 0.91261 1.64999 1.05683 1.38023 1.31356C1.11048 1.57028 0.958935 1.91847 0.958935 2.28152V14.0305C0.958935 14.3935 1.11048 14.7417 1.38023 14.9984C1.64999 15.2552 2.01585 15.3994 2.39734 15.3994H14.7427C15.1242 15.3994 15.49 15.2552 15.7598 14.9984C16.0295 14.7417 16.1811 14.3935 16.1811 14.0305V2.28152C16.1811 1.91847 16.0295 1.57028 15.7598 1.31356C15.49 1.05683 15.1242 0.91261 14.7427 0.91261H2.39734Z" fill="#121212"/>
<path d="M8.56997 12.3498C7.69865 12.3489 6.84717 12.1021 6.12317 11.6408C5.39916 11.1794 4.83514 10.5241 4.5024 9.75772C4.16966 8.99134 4.08314 8.14827 4.25378 7.3351C4.42442 6.52193 4.84455 5.77516 5.46107 5.18919C6.07759 4.60322 6.86281 4.20436 7.71749 4.04302C8.57216 3.88169 9.4579 3.96513 10.2628 4.2828C11.0676 4.60046 11.7554 5.13809 12.2393 5.82772C12.7231 6.51735 12.9813 7.32802 12.9811 8.15724C12.9795 9.26968 12.5141 10.336 11.6871 11.1221C10.86 11.9082 9.73887 12.3498 8.56997 12.3498ZM8.56997 4.87185C7.88855 4.87275 7.2227 5.06582 6.65652 5.42667C6.09034 5.78752 5.64922 6.29996 5.3889 6.89927C5.12857 7.49857 5.0607 8.15786 5.19387 8.79386C5.32704 9.42985 5.65527 10.014 6.13711 10.4726C6.61894 10.9311 7.23277 11.2435 7.90104 11.3702C8.56932 11.497 9.26207 11.4324 9.8918 11.1846C10.5215 10.9369 11.06 10.5171 11.4391 9.97826C11.8183 9.43943 12.0212 8.80574 12.0221 8.15724C12.0221 7.2859 11.6584 6.45025 11.011 5.83412C10.3636 5.21799 9.48554 4.87185 8.56997 4.87185Z" fill="#121212"/>
<path d="M13.5565 4.41963C14.1258 4.41963 14.5873 3.9804 14.5873 3.43857C14.5873 2.89675 14.1258 2.45752 13.5565 2.45752C12.9872 2.45752 12.5256 2.89675 12.5256 3.43857C12.5256 3.9804 12.9872 4.41963 13.5565 4.41963Z" fill="#121212"/>
</svg>
