<svg width="369" height="88" viewBox="0 0 369 88" fill="none" xmlns="http://www.w3.org/2000/svg">
<path d="M40.5625 88C31.3777 88 23.778 86.4286 17.7636 83.2857C11.7958 80.1429 7.34322 75.7308 4.40593 70.0495C1.46864 64.3681 0 57.6996 0 50.044V1.69231H17.9035V46.0549C17.9035 50.0843 18.2065 53.7711 18.8126 57.1154C19.4187 60.4194 20.5144 63.2802 22.0996 65.6978C23.7314 68.0751 26.0393 69.9084 29.0232 71.1978C32.0071 72.4872 35.8536 73.1319 40.5625 73.1319C45.2715 73.1319 49.118 72.4872 52.1019 71.1978C55.0858 69.9084 57.3704 68.0751 58.9556 65.6978C60.5874 63.2802 61.7063 60.4194 62.3125 57.1154C62.9186 53.7711 63.2216 50.0843 63.2216 46.0549V1.69231H81.1251V50.044C81.1251 57.6996 79.6564 64.3681 76.7191 70.0495C73.7819 75.7308 69.306 80.1429 63.2916 83.2857C57.3237 86.4286 49.7474 88 40.5625 88Z" fill="#121212"/>
<path d="M157.043 86.3077L120.817 41.5824L157.043 1.69231H178.024L141.518 41.5824L178.024 86.3077H157.043ZM101.515 86.3077V1.69231H119.418V86.3077H101.515Z" fill="#121212"/>
<path d="M227.763 88C218.439 88 210.14 86.1868 202.866 82.5604C195.593 78.8938 189.882 73.7766 185.732 67.2088C181.583 60.6007 179.508 52.8645 179.508 44C179.508 35.1355 181.583 27.4194 185.732 20.8516C189.882 14.2436 195.593 9.12637 202.866 5.5C210.14 1.83333 218.439 0 227.763 0C237.088 0 245.387 1.83333 252.66 5.5C259.934 9.12637 265.645 14.2436 269.794 20.8516C273.944 27.4194 276.019 35.1355 276.019 44C276.019 52.8645 273.944 60.6007 269.794 67.2088C265.645 73.7766 259.934 78.8938 252.66 82.5604C245.387 86.1868 237.088 88 227.763 88ZM227.763 73.011C234.291 73.011 239.746 71.7619 244.128 69.2637C248.511 66.7656 251.798 63.3407 253.989 58.989C256.18 54.5971 257.276 49.6007 257.276 44C257.276 38.3993 256.18 33.4231 253.989 29.0714C251.798 24.6795 248.511 21.2344 244.128 18.7363C239.746 16.2381 234.291 14.989 227.763 14.989C221.236 14.989 215.781 16.2381 211.398 18.7363C207.016 21.2344 203.729 24.6795 201.537 29.0714C199.346 33.4231 198.251 38.3993 198.251 44C198.251 49.6007 199.346 54.5971 201.537 58.989C203.729 63.3407 207.016 66.7656 211.398 69.2637C215.781 71.7619 221.236 73.011 227.763 73.011Z" fill="#121212"/>
<path d="M291.651 86.3077V1.69231H309.275L351.097 56.3297V1.69231H369V86.3077H354.314L309.555 28.2857V86.3077H291.651Z" fill="#121212"/>
</svg>
